<?xml version="1.0" encoding="UTF-8" standalone="no"?>
<svg
   xmlns:dc="http://purl.org/dc/elements/1.1/"
   xmlns:cc="http://creativecommons.org/ns#"
   xmlns:rdf="http://www.w3.org/1999/02/22-rdf-syntax-ns#"
   xmlns:svg="http://www.w3.org/2000/svg"
   xmlns="http://www.w3.org/2000/svg"
   xmlns:sodipodi="http://sodipodi.sourceforge.net/DTD/sodipodi-0.dtd"
   xmlns:inkscape="http://www.inkscape.org/namespaces/inkscape"
   x="0px"
   y="0px"
   width="104.5675"
   height="104.56675"
   viewbox="0 0 144 144"
   id="svg3336"
   version="1.1"
   inkscape:version="0.91 r13725"
   sodipodi:docname="rust-logo-white.svg">
  <metadata
     id="metadata3344">
    <rdf:RDF>
      <cc:Work
         rdf:about="">
        <dc:format>image/svg+xml</dc:format>
        <dc:type
           rdf:resource="http://purl.org/dc/dcmitype/StillImage" />
        <dc:title></dc:title>
      </cc:Work>
    </rdf:RDF>
  </metadata>
  <defs
     id="defs3342" />
  <sodipodi:namedview
     pagecolor="#ffffff"
     bordercolor="#666666"
     borderopacity="1"
     objecttolerance="10"
     gridtolerance="10"
     guidetolerance="10"
     inkscape:pageopacity="0"
     inkscape:pageshadow="2"
     inkscape:window-width="2560"
     inkscape:window-height="1377"
     id="namedview3340"
     showgrid="false"
     inkscape:zoom="8.3888889"
     inkscape:cx="53.2695"
     inkscape:cy="51.28225"
     inkscape:window-x="-8"
     inkscape:window-y="-8"
     inkscape:window-maximized="1"
     inkscape:current-layer="svg3336"
     fit-margin-top="0"
     fit-margin-left="0"
     fit-margin-right="0"
     fit-margin-bottom="0" />
  <path
     d="m 49.0125,12.3195 a 3.108,3.108 0 0 1 6.216,0 3.108,3.108 0 0 1 -6.216,0 m -37.077,28.14 a 3.108,3.108 0 1 1 6.216,0 3.108,3.108 0 0 1 -6.216,0 m 74.153,0.145 a 3.108,3.108 0 0 1 6.216,0 3.108,3.108 0 0 1 -6.216,0 m -65.156,4.258 c 1.43,-0.635 2.076,-2.311 1.441,-3.744 l -1.379,-3.118 5.423,0 0,24.444 -10.941,0 a 38.265,38.265 0 0 1 -1.239,-14.607 z m 22.685,0.601 0,-7.205 12.914,0 c 0.667,0 4.71,0.771 4.71,3.794 0,2.51 -3.101,3.41 -5.651,3.41 z m -17.631,38.793 a 3.108,3.108 0 1 1 6.216,0 3.108,3.108 0 0 1 -6.216,0 m 46.051,0.145 a 3.108,3.108 0 0 1 6.216,0 3.108,3.108 0 0 1 -6.216,0 m 0.961,-7.048 c -1.531,-0.328 -3.037,0.646 -3.365,2.18 l -1.56,7.28 a 38.265,38.265 0 0 1 -31.911,-0.153 l -1.559,-7.28 c -0.328,-1.532 -1.834,-2.508 -3.364,-2.179 l -6.427,1.38 a 38.265,38.265 0 0 1 -3.323,-3.917 l 31.272,0 c 0.354,0 0.59,-0.064 0.59,-0.386 l 0,-11.062 c 0,-0.322 -0.236,-0.386 -0.59,-0.386 l -9.146,0 0,-7.012 9.892,0 c 0.903,0 4.828,0.258 6.083,5.275 0.393,1.543 1.256,6.562 1.846,8.169 0.588,1.802 2.982,5.402 5.533,5.402 l 16.146,0 a 38.265,38.265 0 0 1 -3.544,4.102 z m 17.365,-29.207 a 38.265,38.265 0 0 1 0.081,6.643 l -3.926,0 c -0.393,0 -0.551,0.258 -0.551,0.643 l 0,1.803 c 0,4.244 -2.393,5.167 -4.49,5.402 -1.997,0.225 -4.211,-0.836 -4.484,-2.058 -1.178,-6.626 -3.141,-8.041 -6.241,-10.486 3.847,-2.443 7.85,-6.047 7.85,-10.871 0,-5.209 -3.571,-8.49 -6.005,-10.099 -3.415,-2.251 -7.196,-2.702 -8.216,-2.702 l -40.603,0 a 38.265,38.265 0 0 1 21.408,-12.082 l 4.786,5.021 c 1.082,1.133 2.874,1.175 4.006,0.092 l 5.355,-5.122 a 38.265,38.265 0 0 1 26.196,18.657 l -3.666,8.28 c -0.633,1.433 0.013,3.109 1.442,3.744 z m 9.143,0.134 -0.125,-1.28 3.776,-3.522 c 0.768,-0.716 0.481,-2.157 -0.501,-2.523 l -4.827,-1.805 -0.378,-1.246 3.011,-4.182 c 0.614,-0.85 0.05,-2.207 -0.984,-2.377 l -5.09,-0.828 -0.612,-1.143 2.139,-4.695 c 0.438,-0.956 -0.376,-2.179 -1.428,-2.139 l -5.166,0.18 -0.816,-0.99 1.187,-5.032 c 0.24,-1.022 -0.797,-2.06 -1.819,-1.82 l -5.031,1.186 -0.992,-0.816 0.181,-5.166 c 0.04,-1.046 -1.184,-1.863 -2.138,-1.429 l -4.694,2.14 -1.143,-0.613 -0.83,-5.091 c -0.168,-1.032 -1.526,-1.596 -2.376,-0.984 l -4.185,3.011 -1.244,-0.377 -1.805,-4.828 c -0.366,-0.984 -1.808,-1.267 -2.522,-0.503 l -3.522,3.779 -1.28,-0.125 -2.72,-4.395 c -0.55,-0.89 -2.023,-0.89 -2.571,0 l -2.72,4.395 -1.281,0.125 -3.523,-3.779 c -0.714,-0.764 -2.156,-0.481 -2.522,0.503 l -1.805,4.828 -1.245,0.377 -4.184,-3.011 c -0.85,-0.614 -2.209,-0.048 -2.377,0.984 l -0.83,5.091 -1.143,0.613 -4.694,-2.14 c -0.954,-0.436 -2.178,0.383 -2.138,1.429 l 0.18,5.166 -0.992,0.816 -5.031,-1.186 c -1.022,-0.238 -2.06,0.798 -1.82,1.82 l 1.185,5.032 -0.814,0.99 -5.166,-0.18 c -1.042,-0.03 -1.863,1.183 -1.429,2.139 l 2.14,4.695 -0.613,1.143 -5.09,0.828 c -1.034,0.168 -1.594,1.527 -0.984,2.377 l 3.011,4.182 -0.378,1.246 -4.828,1.805 c -0.98,0.366 -1.267,1.807 -0.501,2.523 l 3.777,3.522 -0.125,1.28 -4.394,2.72 c -0.89,0.55 -0.89,2.023 0,2.571 l 4.394,2.72 0.125,1.28 -3.777,3.523 c -0.766,0.714 -0.479,2.154 0.501,2.522 l 4.828,1.805 0.378,1.246 -3.011,4.183 c -0.612,0.852 -0.049,2.21 0.985,2.376 l 5.089,0.828 0.613,1.145 -2.14,4.693 c -0.436,0.954 0.387,2.181 1.429,2.139 l 5.164,-0.181 0.816,0.992 -1.185,5.033 c -0.24,1.02 0.798,2.056 1.82,1.816 l 5.031,-1.185 0.992,0.814 -0.18,5.167 c -0.04,1.046 1.184,1.864 2.138,1.428 l 4.694,-2.139 1.143,0.613 0.83,5.088 c 0.168,1.036 1.527,1.596 2.377,0.986 l 4.182,-3.013 1.246,0.379 1.805,4.826 c 0.366,0.98 1.808,1.269 2.522,0.501 l 3.523,-3.777 1.281,0.128 2.72,4.394 c 0.548,0.886 2.021,0.888 2.571,0 l 2.72,-4.394 1.28,-0.128 3.522,3.777 c 0.714,0.768 2.156,0.479 2.522,-0.501 l 1.805,-4.826 1.246,-0.379 4.183,3.013 c 0.85,0.61 2.208,0.048 2.376,-0.986 l 0.83,-5.088 1.143,-0.613 4.694,2.139 c 0.954,0.436 2.176,-0.38 2.138,-1.428 l -0.18,-5.167 0.991,-0.814 5.031,1.185 c 1.022,0.24 2.059,-0.796 1.819,-1.816 l -1.185,-5.033 0.814,-0.992 5.166,0.181 c 1.042,0.042 1.866,-1.185 1.428,-2.139 l -2.139,-4.693 0.612,-1.145 5.09,-0.828 c 1.036,-0.166 1.598,-1.524 0.984,-2.376 l -3.011,-4.183 0.378,-1.246 4.827,-1.805 c 0.982,-0.368 1.269,-1.808 0.501,-2.522 l -3.776,-3.523 0.125,-1.28 4.394,-2.72 c 0.89,-0.548 0.891,-2.021 10e-4,-2.571 z"
     id="path3338"
     style="fill:#ffffff"
     inkscape:connector-curvature="0" />
</svg>
